<?xml version="1.0" encoding="UTF-8" standalone="no"?>
<!-- Created with Inkscape (http://www.inkscape.org/) -->

<svg
   width="128mm"
   height="45mm"
   viewBox="0 0 128 45"
   version="1.1"
   id="svg9712"
   inkscape:version="1.2.2 (b0a8486541, 2022-12-01)"
   sodipodi:docname="logo_true.svg"
   inkscape:export-filename="logo_icon.svg"
   inkscape:export-xdpi="417.76318"
   inkscape:export-ydpi="417.76318"
   xmlns:inkscape="http://www.inkscape.org/namespaces/inkscape"
   xmlns:sodipodi="http://sodipodi.sourceforge.net/DTD/sodipodi-0.dtd"
   xmlns="http://www.w3.org/2000/svg"
   xmlns:svg="http://www.w3.org/2000/svg">
  <sodipodi:namedview
     id="namedview9714"
     pagecolor="#ffffff"
     bordercolor="#000000"
     borderopacity="0.45490196"
     inkscape:showpageshadow="2"
     inkscape:pageopacity="0"
     inkscape:pagecheckerboard="false"
     inkscape:deskcolor="#d1d1d1"
     inkscape:document-units="mm"
     showgrid="false"
     inkscape:zoom="2"
     inkscape:cx="242.5"
     inkscape:cy="136.25"
     inkscape:window-width="1920"
     inkscape:window-height="1008"
     inkscape:window-x="1920"
     inkscape:window-y="0"
     inkscape:window-maximized="1"
     inkscape:current-layer="layer1"
     showborder="true" />
  <defs
     id="defs9709" />
  <g
     inkscape:label="Layer 1"
     inkscape:groupmode="layer"
     id="layer1"
     style="display:inline"
     transform="translate(-24.854802,-79.135834)">
    <rect
       style="display:none;fill:#ffffff;fill-opacity:0.996711;stroke-width:0.400972;stroke-linecap:round;stroke-linejoin:round"
       id="rect11291"
       width="154.38438"
       height="67.865623"
       x="24.154236"
       y="77.888016"
       inkscape:label="rect_white" />
    <rect
       style="display:inline;fill:#000000;fill-opacity:0.996711;stroke:none;stroke-width:0.19282;stroke-linecap:round;stroke-linejoin:round;stroke-dasharray:none;stroke-opacity:1"
       id="rect2865"
       width="44.628498"
       height="44.628498"
       x="24.854801"
       y="79.321587"
       inkscape:label="rect" />
    <g
       aria-label="SALTO GAMEDEV"
       id="text8890"
       style="font-size:28px;font-family:'Noto Nastaliq Urdu';-inkscape-font-specification:'Noto Nastaliq Urdu';text-align:center;text-anchor:middle;display:inline;fill-opacity:0.996711;stroke-width:0.999997;stroke-linecap:round;stroke-linejoin:round"
       transform="matrix(0.35398034,0,0,0.35398034,-12.467606,-9.884858)"
       inkscape:label="text">
      <path
         d="m 252.39831,313.44045 c -2.26133,0 -4.39467,-0.32 -6.4,-0.96 -2.00533,-0.64 -3.84,-1.6 -5.504,-2.88 -1.664,-1.28 -3.136,-2.85867 -4.416,-4.736 l 3.456,-3.84 c 2.00533,2.85867 4.05333,4.864 6.144,6.016 2.13333,1.152 4.52267,1.728 7.168,1.728 1.92,0 3.66933,-0.32 5.248,-0.96 1.57867,-0.64 2.816,-1.536 3.712,-2.688 0.896,-1.152 1.344,-2.47467 1.344,-3.968 0,-0.98133 -0.17067,-2.32475 -0.512,-3.09275 -0.29867,-0.768 -0.768,-1.45067 -1.408,-2.048 -0.64,-0.59733 -1.42933,-1.13067 -2.368,-1.6 -0.93867,-0.46933 -2.02667,-0.896 -3.264,-1.28 -1.19467,-0.384 -2.53867,-0.768 -4.032,-1.152 -2.176,-0.512 -4.096,-1.10933 -5.76,-1.792 -1.62133,-0.72533 -3.008,-1.6 -4.16,-2.624 -1.10933,-1.024 -2.15017,-2.19733 -2.7475,-3.52 -0.55467,-1.36533 -0.832,-2.96533 -0.832,-4.8 0,-1.74933 0.36267,-3.83942 1.088,-5.33275 0.768,-1.49333 2.00083,-2.77333 3.3235,-3.84 1.32267,-1.10933 2.88,-1.96267 4.672,-2.56 1.792,-0.59733 3.712,-0.896 5.76,-0.896 2.304,0 4.352,0.32 6.144,0.96 1.83467,0.59733 3.456,1.49333 4.864,2.688 1.408,1.19467 2.624,2.624 3.648,4.288 l -3.52,3.456 c -0.896,-1.408 -1.92,-2.624 -3.072,-3.648 -1.10933,-1.024 -2.34667,-1.792 -3.712,-2.304 -1.32267,-0.55467 -2.79467,-0.832 -4.416,-0.832 -1.87733,0 -3.54133,0.32 -4.992,0.96 -1.408,0.64 -2.51733,1.536 -3.328,2.688 -0.81067,1.10933 -1.216,2.85808 -1.216,4.30875 0,1.06667 0.192,2.02667 0.576,2.88 0.384,0.81067 0.98133,1.536 1.792,2.176 0.85333,0.59733 1.94133,1.152 3.264,1.664 1.36533,0.46933 2.98667,0.91733 4.864,1.344 2.21867,0.512 4.20267,1.13067 5.952,1.856 1.792,0.72533 3.30667,1.6 4.544,2.624 1.28,0.98133 2.4275,2.13333 3.0675,3.456 0.68267,1.32267 1.024,2.83733 1.024,4.544 0,2.64533 -0.66133,5.43942 -1.984,7.44475 -1.32267,1.96267 -3.36617,3.49867 -5.7555,4.608 -2.34667,1.10933 -5.09867,1.664 -8.256,1.664 z"
         style="font-weight:300;font-size:64px;font-family:lexend;-inkscape-font-specification:'lexend Light';text-align:start;text-anchor:start;stroke-width:1"
         id="path8919"
         sodipodi:nodetypes="ssscccsssscsscccccsccsscsccccsccscccccccsccs" />
      <path
         d="m 273.26229,312.3317 17.152,-44.8 h 5.696 l 17.024,44.8 h -5.44 l -10.944,-29.056 q -0.448,-1.216 -1.024,-2.816 -0.512,-1.664 -1.152,-3.392 -0.576,-1.792 -1.152,-3.456 -0.512,-1.664 -0.96,-2.944 h 1.28 q -0.512,1.6 -1.088,3.264 -0.512,1.6 -1.088,3.264 -0.576,1.6 -1.152,3.2 -0.576,1.6 -1.152,3.2 l -10.88,28.736 z m 7.296,-12.352 1.856,-4.864 h 21.184 l 2.048,4.864 z"
         style="font-weight:300;font-size:64px;font-family:lexend;-inkscape-font-specification:'lexend Light';text-align:start;text-anchor:start;stroke-width:1"
         id="path8921" />
      <path
         d="m 321.32631,312.3317 v -44.8 h 4.992 v 39.936 h 21.504 v 4.864 z"
         style="font-weight:300;font-size:64px;font-family:lexend;-inkscape-font-specification:'lexend Light';text-align:start;text-anchor:start;stroke-width:1"
         id="path8923" />
      <path
         d="m 360.30234,312.3317 v -39.936 h -12.8 v -4.864 h 31.104 v 4.864 h -13.312 v 39.936 z"
         style="font-weight:300;font-size:64px;font-family:lexend;-inkscape-font-specification:'lexend Light';text-align:start;text-anchor:start;stroke-width:1"
         id="path8925" />
      <path
         d="m 403.6303,313.44045 c -3.15733,0 -6.08,-0.55467 -8.768,-1.664 -2.64533,-1.152 -4.97067,-2.752 -6.976,-4.8 -1.96267,-2.048 -3.49867,-4.92742 -4.608,-7.70075 -1.06667,-2.816 -1.6,-5.888 -1.6,-9.216 0,-3.328 0.53333,-6.37867 1.6,-9.152 1.10933,-2.816 2.64533,-5.71675 4.608,-7.76475 2.00533,-2.09067 4.33067,-3.69067 6.976,-4.8 2.688,-1.152 5.61067,-1.728 8.768,-1.728 3.2,0 6.12267,0.576 8.768,1.728 2.688,1.10933 5.01333,2.70933 6.976,4.8 2.00533,2.048 3.54133,4.94875 4.608,7.76475 1.10933,2.77333 1.664,5.824 1.664,9.152 0,3.28533 -0.55467,6.336 -1.664,9.152 -1.06667,2.77333 -2.60267,5.67408 -4.608,7.76475 -1.96267,2.048 -4.288,3.648 -6.976,4.8 -2.64533,1.10933 -5.568,1.664 -8.768,1.664 z m 0,-4.928 c 2.432,0 4.672,-0.42667 6.72,-1.28 2.09067,-0.896 3.97642,-2.34217 5.46975,-3.9635 1.49333,-1.62133 2.55158,-3.80125 3.36225,-5.97725 0.85333,-2.21867 1.28,-4.62933 1.28,-7.232 0,-2.64533 -0.42667,-5.056 -1.28,-7.232 -0.81067,-2.21867 -1.86892,-4.41992 -3.36225,-6.04125 -1.49333,-1.62133 -3.28533,-3.0675 -5.376,-3.9635 -2.048,-0.896 -4.38175,-1.344 -6.81375,-1.344 -2.432,0 -4.69333,0.448 -6.784,1.344 -2.048,0.896 -3.91242,2.34217 -5.40575,3.9635 -1.49333,1.62133 -2.55158,3.82258 -3.36225,6.04125 -0.81067,2.176 -1.216,4.58667 -1.216,7.232 0,2.60267 0.40533,5.01333 1.216,7.232 0.81067,2.176 1.86892,4.35592 3.36225,5.97725 1.49333,1.62133 3.35775,3.0675 5.40575,3.9635 2.09067,0.85333 4.352,1.28 6.784,1.28 z"
         style="font-weight:300;font-size:64px;font-family:lexend;-inkscape-font-specification:'lexend Light';text-align:start;text-anchor:start;stroke-width:1"
         id="path8927"
         sodipodi:nodetypes="scccscccscccscccsscscscscscscscscs" />
      <path
         d="m 252.57431,363.48045 c -2.464,0 -4.752,-0.432 -6.864,-1.296 -2.112,-0.864 -3.968,-2.064 -5.568,-3.6 -1.6,-1.536 -3.0355,-3.81275 -3.9315,-5.89275 -0.864,-2.112 -1.296,-4.4 -1.296,-6.864 0,-2.464 0.432,-4.736 1.296,-6.816 0.896,-2.112 2.2995,-4.40475 3.8355,-5.94075 1.568,-1.536 3.392,-2.72 5.472,-3.552 2.112,-0.864 4.368,-1.296 6.768,-1.296 1.696,0 3.36,0.24 4.992,0.72 1.664,0.48 3.168,1.152 4.512,2.016 1.344,0.864 2.432,1.84 3.264,2.928 l -2.496,2.544 c -0.896,-0.928 -1.904,-1.728 -3.024,-2.4 -1.12,-0.672 -2.304,-1.2 -3.552,-1.584 -1.216,-0.384 -2.432,-0.576 -3.648,-0.576 -1.888,0 -3.648,0.336 -5.28,1.008 -1.6,0.672 -3.008,1.616 -4.224,2.832 -1.216,1.184 -2.3475,3.07675 -3.0195,4.74075 -0.672,1.632 -1.008,3.424 -1.008,5.376 0,1.888 0.336,3.664 1.008,5.328 0.704,1.632 1.8675,3.54075 3.1155,4.78875 1.28,1.216 2.752,2.16 4.416,2.832 1.664,0.672 3.456,1.008 5.376,1.008 1.504,0 2.912,-0.224 4.224,-0.672 1.344,-0.448 2.512,-1.072 3.504,-1.872 0.992,-0.832 1.76,-2.26075 2.304,-3.34875 0.544,-1.088 0.816,-2.256 0.816,-3.504 v -1.68 l 0.768,0.96 h -11.808 v -3.696 h 14.9715 c 0.032,0.256 0.064,0.56 0.096,0.912 0.032,0.32 0.048,0.656 0.048,1.008 0.032,0.32 0.048,0.624 0.048,0.912 0,2.08 -0.384,4 -1.152,5.76 -0.768,1.728 -2.0275,3.70075 -3.4035,4.98075 -1.344,1.248 -2.912,2.224 -4.704,2.928 -1.792,0.672 -3.744,1.008 -5.856,1.008 z"
         style="font-weight:300;font-size:48px;font-family:lexend;-inkscape-font-specification:'lexend Light';text-align:start;text-anchor:start;stroke-width:1"
         id="path8929"
         sodipodi:nodetypes="ssscscccscsccscscccsccssccsscccccccscccs" />
      <path
         d="m 270.14229,362.5317 12.864,-33.6 h 4.272 l 12.768,33.6 h -4.08 l -8.208,-21.792 q -0.336,-0.912 -0.768,-2.112 -0.384,-1.248 -0.864,-2.544 -0.432,-1.344 -0.864,-2.592 -0.384,-1.248 -0.72,-2.208 h 0.96 q -0.384,1.2 -0.816,2.448 -0.384,1.2 -0.816,2.448 -0.432,1.2 -0.864,2.4 -0.432,1.2 -0.864,2.4 l -8.16,21.552 z m 5.472,-9.264 1.392,-3.648 h 15.888 l 1.536,3.648 z"
         style="font-weight:300;font-size:48px;font-family:lexend;-inkscape-font-specification:'lexend Light';text-align:start;text-anchor:start;stroke-width:1"
         id="path8931" />
      <path
         d="m 306.19031,362.5317 v -33.6 h 3.648 l 12.912,20.976 -1.728,-0.048 13.056,-20.928 h 3.408 v 33.6 h -3.744 v -15.36 q 0,-4.32 0.144,-7.776 0.144,-3.456 0.528,-6.864 l 0.672,1.344 -12.048,18.912 h -2.592 l -11.712,-18.672 0.528,-1.584 q 0.384,3.216 0.528,6.624 0.144,3.36 0.144,8.016 v 15.36 z"
         style="font-weight:300;font-size:48px;font-family:lexend;-inkscape-font-specification:'lexend Light';text-align:start;text-anchor:start;stroke-width:1"
         id="path8933" />
      <path
         d="m 347.3743,362.5317 v -33.6 h 20.352 v 3.648 h -16.608 v 26.304 h 16.512 v 3.648 z m 1.728,-15.456 v -3.648 h 15.936 v 3.648 z"
         style="font-weight:300;font-size:48px;font-family:lexend;-inkscape-font-specification:'lexend Light';text-align:start;text-anchor:start;stroke-width:1"
         id="path8935" />
      <path
         d="m 376.12634,362.5317 v -33.6 h 12.672 q 3.456,0 6.288,1.248 2.88,1.2 4.992,3.456 2.112,2.256 3.264,5.328 1.152,3.072 1.152,6.768 0,3.696 -1.152,6.816 -1.152,3.072 -3.264,5.328 -2.064,2.208 -4.944,3.456 -2.88,1.2 -6.336,1.2 z m 3.744,-2.976 -0.432,-0.672 h 9.12 q 2.64,0 4.848,-0.912 2.256,-0.96 3.84,-2.688 1.632,-1.776 2.496,-4.176 0.912,-2.4 0.912,-5.376 0,-2.976 -0.912,-5.376 -0.864,-2.4 -2.496,-4.128 -1.632,-1.776 -3.84,-2.688 -2.208,-0.96 -4.848,-0.96 h -9.264 l 0.576,-0.576 z"
         style="font-weight:300;font-size:48px;font-family:lexend;-inkscape-font-specification:'lexend Light';text-align:start;text-anchor:start;stroke-width:1"
         id="path8937" />
      <path
         d="m 411.79034,362.5317 v -33.6 h 20.352 v 3.648 h -16.608 v 26.304 h 16.512 v 3.648 z m 1.728,-15.456 v -3.648 h 15.936 v 3.648 z"
         style="font-weight:300;font-size:48px;font-family:lexend;-inkscape-font-specification:'lexend Light';text-align:start;text-anchor:start;stroke-width:1"
         id="path8939" />
      <path
         d="m 449.80639,362.5317 -13.008,-33.6 h 4.224 l 8.352,21.888 q 0.576,1.488 1.008,2.64 0.432,1.152 0.768,2.208 0.384,1.008 0.72,2.016 0.336,1.008 0.72,2.208 l -1.248,0.048 q 0.48,-1.632 0.912,-3.024 0.48,-1.392 0.96,-2.832 0.528,-1.488 1.296,-3.456 l 8.304,-21.696 h 4.224 l -13.392,33.6 z"
         style="font-weight:300;font-size:48px;font-family:lexend;-inkscape-font-specification:'lexend Light';text-align:start;text-anchor:start;stroke-width:1"
         id="path8941" />
    </g>
    <g
       id="g11063"
       inkscape:label="polygonal"
       style="display:none"
       transform="translate(43.44124,-0.0149165)">
      <path
         style="fill:#ffffff;fill-opacity:0.996711;stroke-width:0.352777;stroke-linecap:round;stroke-linejoin:round"
         d="m 45.633896,116.58223 0.607957,1.98578 0.870011,1.82699 0.691811,-0.77199 0.06592,-0.72553 -0.653079,-1.24361 -0.186905,-1.03555 z"
         id="path10173" />
      <path
         style="fill:#ffffff;fill-opacity:0.996711;stroke-width:0.352777;stroke-linecap:round;stroke-linejoin:round"
         d="m 48.383682,116.60424 0.188674,0.54243 0.576508,1.17764 0.426271,0.67608 0.824587,0.94336 0.468196,-0.89619 0.146746,-0.82231 -0.756957,-0.9867 -0.300115,-0.73343 z"
         id="path10808" />
      <path
         style="fill:#ffffff;fill-opacity:0.996711;stroke-width:0.352777;stroke-linecap:round;stroke-linejoin:round"
         d="m 51.332619,116.31336 0.506632,1.5204 0.54157,1.19493 0.765188,0.88677 0.653378,-0.99997 0.288118,-1.1274 -0.948113,-0.51452 -0.606718,-1.06247 z"
         id="path10810" />
      <path
         style="fill:#ffffff;fill-opacity:0.996711;stroke-width:0.352777;stroke-linecap:round;stroke-linejoin:round"
         d="m 47.703177,129.35948 0.108313,-1.54398 0.140271,-0.25334 -0.126293,-0.0831 -0.61844,-2.05339 -0.283014,-1.11318 -0.06988,-0.39149 0.859525,0.45124 0.419283,0.36949 0.0559,0.59275 0.511707,0.6406 0.283012,0.51728 0.372287,-0.27741 0.423904,-0.28497 0.0058,-0.20558 -0.160721,-0.70124 -0.10482,-1.38517 0.04892,-0.30031 0.579887,0.24568 0.401926,0.36437 0.228682,0.45822 0.351341,0.28264 0.863001,-0.12924 0.1153,-0.69024 0.08386,-1.26883 0.09084,-1.40404 0.498496,1.1496 0.309047,0.47238 0.453163,0.32341 0.91005,-0.39969 0.337936,-1.84756 0.125783,-0.58646 0.538078,0.58017 0.414709,0.49388 1.919998,-1.11419 -0.875612,1.51864 -1.07543,1.13878 -1.132057,1.0943 -0.620485,0.83081 -2.268387,1.35051 -0.793139,0.58804 -0.883983,0.86475 -0.852538,0.87418 -0.380846,0.65722 -0.433256,0.79714 -0.286509,0.15566 -0.32407,0.0969 -0.23789,-0.31182 0.07629,-0.56335 c -0.08125,0.60807 -0.08124,0.60795 5.6e-5,-4e-5 z"
         id="path10812"
         sodipodi:nodetypes="ccccccccccccccccccccccccccccccccccccccccccccccccccc" />
      <path
         style="fill:#ffffff;fill-opacity:0.996711;stroke-width:0.352777;stroke-linecap:round;stroke-linejoin:round"
         d="m 57.852682,115.86595 0.33547,-3.56788 0.703867,-0.91124 1.310248,-1.28612 1.855319,-1.61001 0.752838,-0.2447 -1.23688,1.62191 -1.306753,1.39618 -1.28038,1.46782 z"
         id="path10814"
         sodipodi:nodetypes="cccccccccc" />
      <path
         style="fill:#ffffff;fill-opacity:0.996711;stroke-width:0.352777;stroke-linecap:round;stroke-linejoin:round"
         d="m 57.40737,106.6605 0.667353,-0.78928 0.02445,-0.72954 -0.51362,-0.95595 0.642898,0.56917 0.440243,0.71853 -0.244578,0.41665 -0.370364,0.62577 -0.63591,0.65093 z"
         id="path10818" />
      <path
         style="fill:#ffffff;fill-opacity:0.996711;stroke-width:0.352777;stroke-linecap:round;stroke-linejoin:round"
         d="m 56.348685,103.2298 -1.470205,-0.37533 -1.326531,-0.0658 -0.754737,0.0782 -0.595911,0.1727 -1.034227,0.45125 -0.279521,-0.0991 -0.199155,0.0173 -1.051697,0.80658 -0.943383,0.78457 -0.828077,0.93865 -0.524102,1.55183 0.195667,1.43078 2.159293,0.45439 2.431828,-0.15566 1.313746,-0.1305 2.351464,-1.11631 0.897961,-0.6352 v 0 l -0.411406,0.0859 -2.309537,0.28459 -3.018819,-1.11475 0.03494,-1.96535 0.338921,-0.57859 1.267436,-0.87043 2.226088,-0.16283 z"
         id="path10820" />
      <path
         style="fill:#ffffff;fill-opacity:0.996711;stroke-width:0.352777;stroke-linecap:round;stroke-linejoin:round"
         d="m 55.560256,97.955644 1.936125,0.871979 0.223618,-0.30345 0.607957,0.0849 0.84555,-0.102198 2.344476,-0.852175 1.149527,-0.353761 2.211705,-1.319144 1.565317,-1.894596 0.506627,-0.875758 -1.264827,-0.14465 -1.740017,0.03302 -3.514965,1.108459 -0.814105,0.28458 -0.667356,0.17295 -0.786151,0.466969 -1.205431,0.863182 -0.681778,0.632687 -0.626523,0.777277 z"
         id="path10822" />
      <path
         style="fill:#ffffff;fill-opacity:0.996711;stroke-width:0.352777;stroke-linecap:round;stroke-linejoin:round"
         d="m 61.395705,112.03293 c -0.932906,1.98579 -1.079967,4.4603 -1.272511,6.41882 l -0.07292,2.91498 -0.139761,2.16503 0.840269,-1.00278 0.576511,-0.48269 0.38263,-0.57107 0.181692,-2.96532 -0.03844,-0.73582 -0.251566,-0.90249 c -0.0548,-0.77624 -0.09789,-1.55311 -0.13976,-2.33012 z"
         id="path10824"
         sodipodi:nodetypes="cccccccccccc" />
      <path
         style="fill:#ffffff;fill-opacity:0.996711;stroke-width:0.352777;stroke-linecap:round;stroke-linejoin:round"
         d="m 63.974051,109.71192 2.152853,-0.43196 2.177939,-1.327 1.819204,-2.35527 0.26975,-0.57699 -0.605176,-0.66512 -1.742689,-0.39307 1.209128,-1.16591 1.182637,0.22651 0.890022,0.53596 0.471918,0.75734 1.045721,1.57855 -1.30836,-0.014 2.034217,1.60128 0.768679,2.44489 0.670851,1.5204 -0.733743,-0.80344 -0.485666,-0.51728 -1.291913,-1.76076 0.100459,1.2199 0.876994,5.94321 1.841341,6.46364 0.55205,1.39146 0.450729,1.17135 -1.408086,-2.49521 -0.894467,-2.02509 -1.187958,-2.67916 -1.027236,-2.18547 -0.27255,-0.37578 0.185181,1.71536 0.115303,1.75309 0.132773,1.39461 0.674344,4.09736 1.063114,3.47667 -0.654317,-1.46101 -0.188674,-0.31603 -1.502424,-3.45114 -1.303263,-4.6005 -0.186812,-1.16209 -0.149333,0.36167 7.94e-4,0.81772 -0.150244,4.27031 0.08735,1.69806 0.09434,0.71224 -0.988798,-2.2688 -0.740727,-1.90717 -0.967841,-3.20273 -0.290668,-1.01798 -0.281717,0.27657 -0.247801,0.81093 -0.597484,2.13201 -0.370367,1.69334 -0.352893,2.1666 -0.171207,2.14144 -0.15508,2.64643 -0.250269,-1.60715 -0.09084,-1.12733 -0.335423,-3.96057 -0.578602,-5.46417 0.269412,-3.58936 0.298728,-1.60191 z"
         id="path10826"
         sodipodi:nodetypes="cccccccccccccccccccccccccccccccccccccccccccccccccccccccccccccc" />
      <path
         style="fill:#ffffff;fill-opacity:0.996711;stroke-width:0.352777;stroke-linecap:round;stroke-linejoin:round"
         d="m 44.907144,116.71744 -0.726752,-0.005 0.569523,1.56602 0.206145,0.47011 -0.171207,0.29245 -0.216624,0.40722 -0.482177,0.75312 -0.377352,0.86632 -0.09084,0.34276 -0.370364,-1.15091 -0.541568,-2.49363 -0.133588,-1.2668 -0.802587,-0.17752 0.205925,1.02767 0.290005,0.9638 0.174699,0.4088 -0.541573,1.07544 -0.30747,0.62262 -0.310967,0.44967 -0.262049,-0.86161 -0.174701,-0.50785 -0.122291,-0.92764 -0.202517,-2.36277 -0.587127,-0.16073 -1.215916,-1.03142 -0.101325,-0.23584 -0.06988,-0.77828 0.05241,-0.80186 0.07687,-0.49842 0.244581,-0.24684 0.586994,-0.75627 0.409411,-0.66459 0.579392,-0.75361 0.531088,-0.31288 1.58628,-1.38046 0.782654,-0.70281 1.855319,-1.52354 1.764474,-1.63045 1.408081,-1.31914 1.285793,-1.28455 2.148813,-1.75309 2.253634,-1.122609 0.737235,-0.3742 0.925915,-0.210688 0.387831,-0.08019 0.129278,-0.06132 0.108313,0.599037 0.13976,1.32543 0.07337,0.76255 -0.06289,0.52357 -0.03843,0.65092 -0.887479,-0.11792 -2.071944,-0.33804 -0.607954,0.088 -1.201939,0.14151 -0.637153,0.20765 -2.633237,1.83002 -0.653378,0.85532 -0.985308,1.35216 -1.2264,1.59429 -0.775985,1.19692 -0.318257,1.06255 0.06731,1.13503 0.380683,1.07994 0.806976,0.57886 0.867863,0.35281 3.276028,-1.0226 2.676406,-1.01097 2.72882,-1.28927 1.387118,-0.97796 1.111094,-0.93079 1.733026,-1.48109 -0.537739,-2.97832 -0.593979,-0.9528 -0.555546,-1.0833 -0.293497,-0.72325 0.786151,-0.88048 0.698799,-0.347465 0.555548,-0.242131 2.330501,-0.8962 1.914715,-0.613187 1.058685,-0.144651 1.079646,-0.139932 3.032794,0.273576 0.510127,0.212257 -0.181686,0.523568 -0.831575,1.432345 -0.422775,0.62262 -1.268325,1.59429 -1.858807,2.49992 -1.100614,1.04243 -1.26483,0.97953 -0.534585,0.27672 -0.754703,-0.0566 -0.3494,-0.10848 -0.637308,-0.0846 0.07443,0.58033 -0.646388,0.80815 -2.910509,2.12572 -1.767964,1.19337 -2.510346,2.14083 -0.206145,0.91821 0.007,0.88048 -1.107598,0.32861 -1.525239,0.19085 -2.099897,-0.11321 -1.589743,-0.17301 -1.089113,-0.18289 -0.95223,-0.25843 0.283832,0.67408 0.33193,0.47168 z"
         id="path10906" />
      <path
         style="fill:#ffffff;fill-opacity:0.996711;stroke-width:0.352777;stroke-linecap:round;stroke-linejoin:round"
         d="m 38.506127,112.79775 0.09783,-0.57703 0.396463,-1.13295 0.47005,-0.77894 0.280022,-0.29073 0.09384,0.17124 0.06988,0.15251 -0.181686,0.27672 -0.538078,0.92922 -0.415785,0.7657 z"
         id="path10908" />
    </g>
    <g
       id="g12694"
       inkscape:label="polish"
       style="display:none"
       transform="translate(43.44124,-0.05891268)">
      <path
         style="fill:#ffffff;fill-opacity:0.996711;stroke-width:0.352777;stroke-linecap:round;stroke-linejoin:round"
         d="m 45.633896,116.58223 c 0.297239,1.35543 0.886671,2.57107 1.477968,3.81277 0.563118,-0.48363 0.694915,-0.80616 0.757731,-1.49752 -0.503723,-0.71996 -0.688611,-1.44048 -0.839984,-2.27916 z"
         id="path12670"
         sodipodi:nodetypes="ccccc" />
      <path
         style="fill:#ffffff;fill-opacity:0.996711;stroke-width:0.352777;stroke-linecap:round;stroke-linejoin:round"
         d="m 48.383682,116.60424 c 0.375842,1.29675 1.144443,2.34237 2.01604,3.33951 0.379806,-0.54137 0.502274,-1.08715 0.614942,-1.7185 -0.493287,-0.5148 -0.793192,-1.07525 -1.057072,-1.72013 z"
         id="path12672"
         sodipodi:nodetypes="ccccc" />
      <path
         style="fill:#ffffff;fill-opacity:0.996711;stroke-width:0.352777;stroke-linecap:round;stroke-linejoin:round"
         d="m 51.332619,116.31336 c 0.347767,1.3753 0.896889,2.53997 1.81339,3.6021 0.560461,-0.64367 0.737004,-1.3272 0.941496,-2.12737 -0.873391,-0.31434 -1.117677,-0.81146 -1.554831,-1.57699 z"
         id="path12674"
         sodipodi:nodetypes="ccccc" />
      <path
         style="fill:#ffffff;fill-opacity:0.996711;stroke-width:0.352777;stroke-linecap:round;stroke-linejoin:round"
         d="m 47.703177,129.35948 c 0.04367,-0.57138 0.07311,-1.1439 0.124563,-1.71464 -0.264425,-1.24688 -0.747677,-2.45796 -0.973634,-3.72384 1.22479,0.46429 1.575096,1.59 2.129427,2.57136 0.255324,-0.20185 0.526356,-0.38098 0.796191,-0.56238 -0.07896,-0.85549 -0.35255,-1.72225 -0.210821,-2.5923 0.812187,0.18514 1.041656,0.93066 1.561836,1.35091 l 0.863001,-0.12924 c 0.194289,-1.10855 0.217407,-2.2411 0.29,-3.36311 0.286033,0.80305 0.57528,1.45622 1.260706,1.94539 l 0.91005,-0.39969 c 0.145681,-0.81325 0.290468,-1.62624 0.463719,-2.43402 0.335963,0.34212 0.644769,0.70723 0.952787,1.07405 L 57.791,120.26778 c -0.801172,1.86849 -2.519806,2.99749 -3.703584,4.58253 -2.692329,1.81917 -4.228757,2.58656 -5.612149,5.13184 -0.188025,0.12965 -0.395249,0.18817 -0.610579,0.25256 l -0.23789,-0.31182 c 0.211008,-1.56588 -0.184495,1.38664 0.07638,-0.56341 z"
         id="path12676"
         sodipodi:nodetypes="ccccccccccccccccccc" />
      <path
         style="fill:#ffffff;fill-opacity:0.996711;stroke-width:0.352777;stroke-linecap:round;stroke-linejoin:round"
         d="m 57.852682,115.86595 c 0.06341,-4.38074 2.149806,-6.17032 4.957742,-7.61995 -2.580822,3.02665 -3.624652,3.9348 -4.957742,7.61995 z"
         id="path12678"
         sodipodi:nodetypes="ccc" />
      <path
         style="fill:#ffffff;fill-opacity:0.996711;stroke-width:0.352777;stroke-linecap:round;stroke-linejoin:round"
         d="m 57.40737,106.6605 c 0.935154,-0.88692 0.737201,-1.43432 0.178183,-2.47477 1.533212,1.21323 1.013384,1.77206 -0.167711,2.98105 z"
         id="path12680"
         sodipodi:nodetypes="cccc" />
      <path
         style="fill:#ffffff;fill-opacity:0.996711;stroke-width:0.352777;stroke-linecap:round;stroke-linejoin:round"
         d="m 56.348685,103.2298 c -1.852564,-0.66506 -3.444891,-0.49674 -5.181611,0.26102 -0.166724,-0.0859 -0.300385,-0.0973 -0.478676,-0.0818 -7.348518,5.10799 0.773365,7.62826 6.0027,3.92913 v 0 c -6.636098,1.45811 -7.540892,-5.11103 -0.342413,-4.10835 z"
         id="path12682"
         sodipodi:nodetypes="cccccc" />
      <path
         style="fill:#ffffff;fill-opacity:0.996711;stroke-width:0.352777;stroke-linecap:round;stroke-linejoin:round"
         d="m 55.560256,97.955644 1.936125,0.871979 0.223618,-0.30345 c 3.448859,0.33105 7.569972,-2.441197 9.231159,-5.312732 -3.757377,-0.460196 -10.744386,1.951612 -11.390902,4.744203 z"
         id="path12684"
         sodipodi:nodetypes="ccccc" />
      <path
         style="fill:#ffffff;fill-opacity:0.996711;stroke-width:0.352777;stroke-linecap:round;stroke-linejoin:round"
         d="m 61.395705,112.03293 c -1.46609,3.77756 -1.484341,6.21442 -1.485192,11.49883 0.540194,-0.76532 1.283912,-1.28717 1.79941,-2.05654 0.06955,-1.23566 0.207847,-2.46467 0.143252,-3.70114 -0.527694,-1.91264 -0.414427,-4.10094 -0.45747,-5.74115 z"
         id="path12686"
         sodipodi:nodetypes="ccccc" />
      <path
         style="fill:#ffffff;fill-opacity:0.996711;stroke-width:0.352777;stroke-linecap:round;stroke-linejoin:round"
         d="m 63.974051,109.71192 c 2.490985,-0.91451 10.119909,-4.4241 4.071881,-5.74941 l 1.209128,-1.16591 c 2.012651,0.15974 2.574537,1.56504 3.590298,3.09836 l -1.30836,-0.014 c 2.59251,1.55844 2.45065,3.23888 3.473747,5.56657 -0.953675,-0.93569 -1.723351,-2.00755 -2.511322,-3.08148 0.370889,5.58274 1.820772,10.9899 3.821573,16.18956 -2.193869,-2.90283 -2.673986,-6.84283 -4.790297,-9.76071 0.220961,4.24836 0.926788,8.36911 2.170715,12.43709 -1.673745,-3.63291 -3.262746,-7.57211 -3.83549,-10.99077 -0.390857,2.51745 -0.457355,5.29112 -0.117093,7.86 -1.310009,-2.68483 -2.170523,-5.53359 -2.988034,-8.39668 -1.970334,3.29251 -1.956931,8.11956 -2.176549,11.86732 -0.865645,-6.59014 -1.530349,-11.80566 -0.610197,-17.85994 z"
         id="path12688"
         sodipodi:nodetypes="ccccccccccccccc" />
      <path
         style="fill:#ffffff;fill-opacity:0.996711;stroke-width:0.352777;stroke-linecap:round;stroke-linejoin:round"
         d="m 44.907144,116.71744 -0.726752,-0.005 c 0.244355,0.68497 0.483662,1.37022 0.775668,2.03613 -0.485275,0.87409 -1.078895,1.68345 -1.3382,2.66187 -0.556958,-1.58643 -0.869648,-3.24357 -1.04552,-4.91134 l -0.802587,-0.17752 c 0.138036,0.82316 0.342508,1.63246 0.670629,2.40027 -0.372005,0.72812 -0.694859,1.4751 -1.16001,2.14773 -0.591858,-1.49291 -0.625722,-3.07507 -0.761558,-4.65987 -0.732156,-0.18171 -1.599518,-0.71843 -1.904368,-1.42799 -0.11368,-0.69536 -0.04706,-1.38828 0.0594,-2.07856 0.981238,-0.94712 1.252566,-2.08679 2.351466,-2.73419 5.303773,-4.32138 8.733143,-9.03189 15.265307,-11.443047 0.300529,1.283319 0.296699,2.564477 0.220123,3.861507 -1.84798,-0.35506 -3.522001,-0.89072 -5.406469,-0.0188 -2.537249,1.28933 -3.830231,3.46331 -5.498323,5.63179 -1.541111,2.18659 -0.309898,4.75491 2.665615,4.37713 5.67241,-1.02878 7.085422,-1.52302 10.737587,-5.43815 2.312744,-2.55303 -2.245993,-5.08374 -0.65673,-6.8637 3.268436,-1.500998 7.557106,-3.40551 11.180815,-1.897733 -1.574889,3.314983 -4.027706,6.448133 -6.928612,8.694703 -0.715267,0.47905 -1.492927,0.13099 -2.275996,0.027 -0.871165,3.84852 -7.996003,4.10876 -7.959922,8.64709 -2.688974,0.83752 -5.671767,0.52253 -8.36382,-0.20808 0.18307,0.55233 0.453722,1.014 0.902257,1.37872 z"
         id="path12690"
         sodipodi:nodetypes="cccccccccccccccccccccccccc" />
      <path
         style="fill:#ffffff;fill-opacity:0.996711;stroke-width:0.352777;stroke-linecap:round;stroke-linejoin:round"
         d="m 38.506127,112.79775 c 0.155094,-1.01619 0.52341,-2.03113 1.244365,-2.77965 0.06344,0.10361 0.112416,0.21403 0.16372,0.32375 -0.515851,0.79073 -0.945368,1.63371 -1.408085,2.4559 z"
         id="path12692"
         sodipodi:nodetypes="cccc" />
    </g>
    <g
       id="g11063-3"
       inkscape:label="polygonal-sheep"
       style="display:inline"
       transform="matrix(1.0152096,0,0,1.0152107,-11.117747,-12.59216)">
      <path
         style="fill:#ffffff;fill-opacity:0.996711;stroke-width:0.352777;stroke-linecap:round;stroke-linejoin:round"
         d="m 45.633896,116.58223 0.607957,1.98578 0.870011,1.82699 0.691811,-0.77199 0.06592,-0.72553 -0.653079,-1.24361 -0.186905,-1.03555 z"
         id="path10173-6" />
      <path
         style="fill:#ffffff;fill-opacity:0.996711;stroke-width:0.352777;stroke-linecap:round;stroke-linejoin:round"
         d="m 48.383682,116.60424 0.188674,0.54243 0.576508,1.17764 0.426271,0.67608 0.824587,0.94336 0.468196,-0.89619 0.146746,-0.82231 -0.756957,-0.9867 -0.300115,-0.73343 z"
         id="path10808-7" />
      <path
         style="fill:#ffffff;fill-opacity:0.996711;stroke-width:0.352777;stroke-linecap:round;stroke-linejoin:round"
         d="m 51.332619,116.31336 0.506632,1.5204 0.54157,1.19493 0.765188,0.88677 0.653378,-0.99997 0.288118,-1.1274 -0.948113,-0.51452 -0.606718,-1.06247 z"
         id="path10810-5" />
      <path
         style="fill:#ffffff;fill-opacity:0.996711;stroke-width:0.352777;stroke-linecap:round;stroke-linejoin:round"
         d="m 47.703177,129.35948 0.108313,-1.54398 0.140271,-0.25334 -0.126293,-0.0831 -0.61844,-2.05339 -0.283014,-1.11318 -0.06988,-0.39149 0.859525,0.45124 0.419283,0.36949 0.0559,0.59275 0.511707,0.6406 0.283012,0.51728 0.372287,-0.27741 0.423904,-0.28497 0.0058,-0.20558 -0.160721,-0.70124 -0.10482,-1.38517 0.04892,-0.30031 0.579887,0.24568 0.401926,0.36437 0.228682,0.45822 0.351341,0.28264 0.863001,-0.12924 0.1153,-0.69024 0.08386,-1.26883 0.09084,-1.40404 0.498496,1.1496 0.309047,0.47238 0.453163,0.32341 0.91005,-0.39969 0.337936,-1.84756 0.125783,-0.58646 0.538078,0.58017 0.414709,0.49388 1.919998,-1.11419 -0.875612,1.51864 -1.07543,1.13878 -1.132057,1.0943 -0.620485,0.83081 -2.268387,1.35051 -0.793139,0.58804 -0.883983,0.86475 -0.852538,0.87418 -0.380846,0.65722 -0.433256,0.79714 -0.286509,0.15566 -0.32407,0.0969 -0.23789,-0.31182 0.07629,-0.56335 c -0.08125,0.60807 -0.08124,0.60795 5.6e-5,-4e-5 z"
         id="path10812-3"
         sodipodi:nodetypes="ccccccccccccccccccccccccccccccccccccccccccccccccccc" />
      <path
         style="fill:#ffffff;fill-opacity:0.996711;stroke-width:0.352777;stroke-linecap:round;stroke-linejoin:round"
         d="m 57.852682,115.86595 0.33547,-3.56788 0.703867,-0.91124 1.310248,-1.28612 1.855319,-1.61001 0.752838,-0.2447 -1.23688,1.62191 -1.306753,1.39618 -1.28038,1.46782 z"
         id="path10814-5"
         sodipodi:nodetypes="cccccccccc" />
      <path
         style="fill:#ffffff;fill-opacity:0.996711;stroke-width:0.352777;stroke-linecap:round;stroke-linejoin:round"
         d="m 57.40737,106.6605 0.667353,-0.78928 0.02445,-0.72954 -0.51362,-0.95595 0.642898,0.56917 0.440243,0.71853 -0.244578,0.41665 -0.370364,0.62577 -0.63591,0.65093 z"
         id="path10818-6" />
      <path
         style="fill:#ffffff;fill-opacity:0.996711;stroke-width:0.352777;stroke-linecap:round;stroke-linejoin:round"
         d="m 56.348685,103.2298 -1.470205,-0.37533 -1.326531,-0.0658 -0.754737,0.0782 -0.595911,0.1727 -1.034227,0.45125 -0.279521,-0.0991 -0.199155,0.0173 -1.051697,0.80658 -0.943383,0.78457 -0.828077,0.93865 -0.524102,1.55183 0.195667,1.43078 2.159293,0.45439 2.431828,-0.15566 1.313746,-0.1305 2.351464,-1.11631 0.897961,-0.6352 v 0 l -0.411406,0.0859 -2.309537,0.28459 -3.018819,-1.11475 0.03494,-1.96535 0.338921,-0.57859 1.267436,-0.87043 2.226088,-0.16283 z"
         id="path10820-2" />
      <path
         style="fill:#ffffff;fill-opacity:0.996711;stroke-width:0.352777;stroke-linecap:round;stroke-linejoin:round"
         d="m 56.993978,98.87252 0.626932,-0.01299 0.528845,-0.303984 0.69595,-0.49486 1.292398,-1.109443 1.429843,-0.526327 1.826302,-0.527401 2.859007,-0.391263 1.969275,-0.331113 -1.247092,-0.255874 -1.736126,-0.120898 -3.599179,0.793456 -0.836071,0.211512 -0.680031,0.11329 -0.824346,0.395659 -1.277005,0.753263 -0.735029,0.569953 -0.241621,0.482545 z"
         id="path10822-9"
         sodipodi:nodetypes="ccccccccccccccccccc" />
      <path
         style="fill:#ffffff;fill-opacity:0.996711;stroke-width:0.352777;stroke-linecap:round;stroke-linejoin:round"
         d="m 61.395705,112.03293 c -0.932906,1.98579 -1.079967,4.4603 -1.272511,6.41882 l -0.07292,2.91498 -0.139761,2.16503 0.840269,-1.00278 0.576511,-0.48269 0.38263,-0.57107 0.181692,-2.96532 -0.03844,-0.73582 -0.251566,-0.90249 c -0.0548,-0.77624 -0.09789,-1.55311 -0.13976,-2.33012 z"
         id="path10824-1"
         sodipodi:nodetypes="cccccccccccc" />
      <path
         style="fill:#ffffff;fill-opacity:0.996711;stroke-width:0.352777;stroke-linecap:round;stroke-linejoin:round"
         d="m 63.974051,109.71192 2.152853,-0.43196 2.177939,-1.327 1.819204,-2.35527 0.26975,-0.57699 -0.605176,-0.66512 -1.742689,-0.39307 1.209128,-1.16591 1.182637,0.22651 0.890022,0.53596 0.471918,0.75734 1.045721,1.57855 -1.30836,-0.014 2.034217,1.60128 0.768679,2.44489 0.670851,1.5204 -0.733743,-0.80344 -0.485666,-0.51728 -1.291913,-1.76076 0.100459,1.2199 0.876994,5.94321 1.841341,6.46364 0.55205,1.39146 0.450729,1.17135 -1.408086,-2.49521 -0.894467,-2.02509 -1.187958,-2.67916 -1.027236,-2.18547 -0.27255,-0.37578 0.185181,1.71536 0.115303,1.75309 0.132773,1.39461 0.674344,4.09736 1.063114,3.47667 -0.654317,-1.46101 -0.188674,-0.31603 -1.502424,-3.45114 -1.303263,-4.6005 -0.186812,-1.16209 -0.149333,0.36167 7.94e-4,0.81772 -0.150244,4.27031 0.08735,1.69806 0.09434,0.71224 -0.988798,-2.2688 -0.740727,-1.90717 -0.967841,-3.20273 -0.290668,-1.01798 -0.281717,0.27657 -0.247801,0.81093 -0.597484,2.13201 -0.370367,1.69334 -0.352893,2.1666 -0.171207,2.14144 -0.15508,2.64643 -0.250269,-1.60715 -0.09084,-1.12733 -0.335423,-3.96057 -0.578602,-5.46417 0.269412,-3.58936 0.298728,-1.60191 z"
         id="path10826-2"
         sodipodi:nodetypes="cccccccccccccccccccccccccccccccccccccccccccccccccccccccccccccc" />
      <path
         style="fill:#ffffff;fill-opacity:0.996711;stroke-width:0.352777;stroke-linecap:round;stroke-linejoin:round"
         d="m 44.907144,116.71744 -0.726752,-0.005 0.569523,1.56602 0.206145,0.47011 -0.171207,0.29245 -0.216624,0.40722 -0.482177,0.75312 -0.377352,0.86632 -0.09084,0.34276 -0.370364,-1.15091 -0.541568,-2.49363 -0.133588,-1.2668 -0.802587,-0.17752 0.205925,1.02767 0.290005,0.9638 0.174699,0.4088 -0.541573,1.07544 -0.30747,0.62262 -0.310967,0.44967 -0.262049,-0.86161 -0.174701,-0.50785 -0.122291,-0.92764 -0.202517,-2.36277 -0.587127,-0.16073 -1.215916,-1.03142 -0.101325,-0.23584 -0.06988,-0.77828 0.05241,-0.80186 0.07687,-0.49842 0.244581,-0.24684 0.586994,-0.75627 0.409411,-0.66459 0.579392,-0.75361 0.531088,-0.31288 1.58628,-1.38046 0.782654,-0.70281 1.855319,-1.52354 1.764474,-1.63045 1.408081,-1.31914 1.285793,-1.28455 2.148813,-1.75309 2.253634,-1.122609 0.737235,-0.3742 0.925915,-0.210688 0.387831,-0.08019 0.129278,-0.06132 0.108313,0.599037 0.13976,1.32543 0.07337,0.76255 -0.06289,0.52357 -0.03843,0.65092 -0.887479,-0.11792 -2.071944,-0.33804 -0.607954,0.088 -1.201939,0.14151 -0.637153,0.20765 -2.633237,1.83002 -0.653378,0.85532 -0.985308,1.35216 -1.2264,1.59429 -0.775985,1.19692 -0.318257,1.06255 0.06731,1.13503 0.380683,1.07994 0.806976,0.57886 0.867863,0.35281 3.276028,-1.0226 2.676406,-1.01097 2.72882,-1.28927 1.387118,-0.97796 1.111094,-0.93079 1.733026,-1.48109 -0.537739,-2.97832 -0.593979,-0.9528 -0.555546,-1.0833 -0.293497,-0.72325 0.786151,-0.88048 0.698799,-0.347465 0.555548,-0.242131 2.330501,-0.8962 1.914715,-0.613187 1.058685,-0.144651 1.079646,-0.139932 3.032794,0.273576 0.510127,0.212257 -0.181686,0.523568 -0.831575,1.432345 -0.422775,0.62262 -1.268325,1.59429 -1.858807,2.49992 -1.100614,1.04243 -1.26483,0.97953 -0.534585,0.27672 -0.754703,-0.0566 -0.3494,-0.10848 -0.637308,-0.0846 0.07443,0.58033 -0.646388,0.80815 -2.910509,2.12572 -1.767964,1.19337 -2.510346,2.14083 -0.206145,0.91821 0.007,0.88048 -1.107598,0.32861 -1.525239,0.19085 -2.099897,-0.11321 -1.589743,-0.17301 -1.089113,-0.18289 -0.95223,-0.25843 0.283832,0.67408 0.33193,0.47168 z"
         id="path10906-7" />
      <path
         style="fill:#ffffff;fill-opacity:0.996711;stroke-width:0.352777;stroke-linecap:round;stroke-linejoin:round"
         d="m 38.506127,112.79775 0.09783,-0.57703 0.396463,-1.13295 0.47005,-0.77894 0.280022,-0.29073 0.09384,0.17124 0.06988,0.15251 -0.181686,0.27672 -0.538078,0.92922 -0.415785,0.7657 z"
         id="path10908-0" />
    </g>
  </g>
</svg>
